<?xml version="1.0" encoding="UTF-8"?>
<svg id="Layer_2" data-name="Layer 2" xmlns="http://www.w3.org/2000/svg" viewBox="0 0 324.59 324.59">
  <defs>
    <style>
      .cls-1 {
        fill: #fff;
      }
    </style>
  </defs>
  <g id="Layer_1-2" data-name="Layer 1">
    <g>
      <circle class="cls-1" cx="162.3" cy="162.3" r="162.3"/>
      <g id="J0NbFX.tif">
        <path d="M201.05,196.6c-.16,23.29-16.37,42.3-35.53,49.37-22.29,8.22-45.46,2.15-61.3-15.13-12.52-13.66-16.78-32.59-11.83-51.2,7.12-26.77,33.28-44.41,61.13-39.86l-.24,30.19c-15.26-3.92-28.88,4.99-32.1,18.84-3.37,14.5,6.32,27.73,21.4,30.1,12.73,2.01,28.06-8,28.09-23.08l.17-120.6,22.19-.22c4.6,20.35,20.46,34.31,41.18,34.85l-.02,36.28c-11.61-1.29-21.18-5.23-32.72-12.12l-.42,62.59Z"/>
      </g>
    </g>
  </g>
</svg>