<?xml version="1.0" encoding="UTF-8"?>
<svg id="Layer_2" data-name="Layer 2" xmlns="http://www.w3.org/2000/svg" viewBox="0 0 13.98 16.97">
  <g id="Layer_1-2" data-name="Layer 1">
    <g id="J0NbFX.tif">
      <path d="M10.76,11.82c-.02,2.26-1.59,4.11-3.45,4.8-2.17.8-4.42.21-5.96-1.47C.13,13.82-.29,11.98.2,10.17c.69-2.6,3.23-4.32,5.94-3.87l-.02,2.93c-1.48-.38-2.81.49-3.12,1.83-.33,1.41.61,2.7,2.08,2.93,1.24.19,2.73-.78,2.73-2.24L7.82.02l2.16-.02c.45,1.98,1.99,3.33,4,3.39v3.53c-1.13-.13-2.06-.51-3.18-1.18l-.04,6.08Z"/>
    </g>
  </g>
</svg>