<?xml version="1.0" encoding="UTF-8"?>
<svg id="Layer_2" data-name="Layer 2" xmlns="http://www.w3.org/2000/svg" viewBox="0 0 29.23 29.23">
  <defs>
    <style>
      .cls-1 {
        fill: #fff;
      }
    </style>
  </defs>
  <g id="Layer_1-2" data-name="Layer 1">
    <g>
      <circle class="cls-1" cx="14.61" cy="14.61" r="14.61"/>
      <g id="J0NbFX.tif">
        <path d="M18.1,17.7c-.01,2.1-1.47,3.81-3.2,4.45-2.01.74-4.09.19-5.52-1.36-1.13-1.23-1.51-2.93-1.07-4.61.64-2.41,3-4,5.5-3.59l-.02,2.72c-1.37-.35-2.6.45-2.89,1.7-.3,1.31.57,2.5,1.93,2.71,1.15.18,2.53-.72,2.53-2.08l.02-10.86,2-.02c.41,1.83,1.84,3.09,3.71,3.14v3.27c-1.05-.12-1.91-.47-2.95-1.09l-.04,5.64Z"/>
      </g>
    </g>
  </g>
</svg>